<svg id="Layer_7" data-name="Layer 7" xmlns="http://www.w3.org/2000/svg" viewBox="0 0 80.95 66.67"><defs><style>.cls-1{fill:#01bafd;}.cls-2{fill:#bd7b00;}.cls-3{fill:#ffe08d;}</style></defs><polygon points="76.19 9.53 76.19 14.29 76.19 19.05 76.19 23.81 76.19 28.58 76.19 33.34 80.95 33.34 80.95 28.58 80.95 23.81 80.95 19.05 80.95 14.29 80.95 9.53 76.19 9.53"/><polygon class="cls-1" points="76.19 23.81 76.19 19.05 76.19 14.29 76.19 9.53 71.42 9.53 66.66 9.53 66.66 4.77 61.9 4.77 57.14 4.77 52.38 4.77 47.61 4.77 42.85 4.77 38.09 4.77 33.33 4.77 28.57 4.77 23.81 4.77 19.04 4.77 14.28 4.77 14.28 9.53 9.52 9.53 4.76 9.53 4.76 14.29 4.76 19.05 4.76 23.81 4.76 28.58 4.76 33.34 9.52 33.34 14.28 33.34 14.28 28.58 19.04 28.58 19.04 33.34 23.81 33.34 28.57 33.34 28.57 28.58 33.33 28.58 33.33 33.34 38.09 33.34 42.85 33.34 42.85 28.58 47.61 28.58 47.61 33.34 52.38 33.34 57.14 33.34 57.14 28.58 61.9 28.58 61.9 33.34 66.66 33.34 71.42 33.34 76.19 33.34 76.19 28.58 76.19 23.81"/><polygon points="66.66 33.34 61.9 33.34 61.9 38.1 66.66 38.1 71.42 38.1 71.42 42.86 71.42 47.62 71.42 52.38 71.42 57.15 71.42 61.91 66.66 61.91 61.9 61.91 57.14 61.91 57.14 57.15 57.14 52.38 57.14 47.62 57.14 42.86 57.14 38.1 57.14 33.34 52.38 33.34 47.61 33.34 47.61 38.1 52.38 38.1 52.38 42.86 52.38 47.62 52.38 52.38 52.38 57.15 52.38 61.91 47.61 61.91 47.61 57.15 47.61 52.38 47.61 47.62 47.61 42.86 47.61 38.1 42.85 38.1 42.85 42.86 42.85 47.62 42.85 52.38 42.85 57.15 42.85 61.91 38.09 61.91 38.09 57.15 38.09 52.38 38.09 47.62 38.09 42.86 38.09 38.1 42.85 38.1 42.85 33.34 38.09 33.34 33.33 33.34 33.33 38.1 33.33 42.86 33.33 47.62 33.33 52.38 33.33 57.15 33.33 61.91 28.57 61.91 23.81 61.91 23.81 57.15 23.81 52.38 23.81 47.62 23.81 42.86 23.81 38.1 28.57 38.1 28.57 33.34 23.81 33.34 19.04 33.34 19.04 38.1 19.04 42.86 19.04 47.62 19.04 52.38 19.04 57.15 19.04 61.91 14.28 61.91 9.52 61.91 9.52 57.15 9.52 52.38 9.52 47.62 9.52 42.86 9.52 38.1 14.28 38.1 14.28 33.34 9.52 33.34 4.76 33.34 4.76 38.1 4.76 42.86 4.76 47.62 4.76 52.38 4.76 57.15 4.76 61.91 0 61.91 0 66.67 4.76 66.67 9.52 66.67 14.28 66.67 19.04 66.67 23.81 66.67 28.57 66.67 33.33 66.67 38.09 66.67 42.85 66.67 47.61 66.67 52.38 66.67 57.14 66.67 61.9 66.67 66.66 66.67 71.42 66.67 76.19 66.67 80.95 66.67 80.95 61.91 76.19 61.91 76.19 57.15 76.19 52.38 76.19 47.62 76.19 42.86 76.19 38.1 76.19 33.34 71.42 33.34 66.66 33.34"/><polygon class="cls-2" points="57.14 42.86 57.14 47.62 57.14 52.38 57.14 57.15 57.14 61.91 61.9 61.91 66.66 61.91 71.42 61.91 71.42 57.15 71.42 52.38 71.42 47.62 71.42 42.86 71.42 38.1 66.66 38.1 61.9 38.1 61.9 33.34 57.14 33.34 57.14 38.1 57.14 42.86"/><rect x="57.14" y="28.58" width="4.76" height="4.76"/><polygon class="cls-3" points="47.61 47.62 47.61 52.38 47.61 57.15 47.61 61.91 52.38 61.91 52.38 57.15 52.38 52.38 52.38 47.62 52.38 42.86 52.38 38.1 47.61 38.1 47.61 42.86 47.61 47.62"/><rect class="cls-3" x="42.85" y="33.34" width="4.76" height="4.76"/><rect x="42.85" y="28.58" width="4.76" height="4.76"/><polygon class="cls-2" points="38.09 42.86 38.09 47.62 38.09 52.38 38.09 57.15 38.09 61.91 42.85 61.91 42.85 57.15 42.85 52.38 42.85 47.62 42.85 42.86 42.85 38.1 38.09 38.1 38.09 42.86"/><rect x="28.57" y="28.58" width="4.76" height="4.76"/><polygon class="cls-3" points="23.81 38.1 23.81 42.86 23.81 47.62 23.81 52.38 23.81 57.15 23.81 61.91 28.57 61.91 33.33 61.91 33.33 57.15 33.33 52.38 33.33 47.62 33.33 42.86 33.33 38.1 33.33 33.34 28.57 33.34 28.57 38.1 23.81 38.1"/><polygon points="23.81 4.77 28.57 4.77 33.33 4.77 38.09 4.77 42.85 4.77 47.61 4.77 52.38 4.77 57.14 4.77 61.9 4.77 66.66 4.77 66.66 9.53 71.42 9.53 76.19 9.53 76.19 4.77 71.42 4.77 71.42 0 66.66 0 61.9 0 57.14 0 52.38 0 47.61 0 42.85 0 38.09 0 33.33 0 28.57 0 23.81 0 19.04 0 14.28 0 14.28 4.77 19.04 4.77 23.81 4.77"/><rect x="14.28" y="28.58" width="4.76" height="4.76"/><polygon class="cls-2" points="9.52 38.1 9.52 42.86 9.52 47.62 9.52 52.38 9.52 57.15 9.52 61.91 14.28 61.91 19.04 61.91 19.04 57.15 19.04 52.38 19.04 47.62 19.04 42.86 19.04 38.1 19.04 33.34 14.28 33.34 14.28 38.1 9.52 38.1"/><polygon points="14.28 9.53 14.28 4.77 9.52 4.77 4.76 4.77 4.76 9.53 9.52 9.53 14.28 9.53"/><polygon points="4.76 23.81 4.76 19.05 4.76 14.29 4.76 9.53 0 9.53 0 14.29 0 19.05 0 23.81 0 28.58 0 33.34 4.76 33.34 4.76 28.58 4.76 23.81"/></svg>