<svg xmlns="http://www.w3.org/2000/svg" viewBox="0 0 73.42 117"><defs><style>.cls-1{fill:#f4e89d;}.cls-2{fill:#c02b00;}.cls-3{fill:#fff;}.cls-4{fill:#fff515;}</style></defs><g id="Layer_1_copy_4" data-name="Layer 1 copy 4"><polygon class="cls-1" points="68.66 88.43 68.66 83.67 63.9 83.67 59.14 83.67 59.14 78.9 54.38 78.9 49.61 78.9 44.85 78.9 40.09 78.9 35.33 78.9 30.57 78.9 25.81 78.9 21.04 78.9 16.28 78.9 16.28 83.67 11.52 83.67 6.76 83.67 6.76 88.43 2 88.43 2 93.19 2 97.95 2 102.71 2 107.48 6.76 107.48 6.76 112.24 11.52 112.24 11.52 117 16.28 117 21.04 117 25.81 117 30.57 117 35.33 117 40.09 117 44.85 117 49.61 117 54.38 117 59.14 117 63.9 117 63.9 112.24 68.66 112.24 68.66 107.48 73.42 107.48 73.42 102.71 73.42 97.95 73.42 93.19 73.42 88.43 68.66 88.43"/></g><g id="pointer"><path class="cls-2" d="M81,42.68V28.39H76.19V18.87H71.43V14.1H66.67V9.34H33.33V14.1H28.57v4.77H23.81v9.52H19.05V52.2h4.76v9.52h4.76v9.53h4.76V76H38.1v4.76h4.76v9.52h4.76v9.53h4.76V90.29h4.76V80.77H61.9V76h4.77V71.25h4.76V61.72h4.76V52.2H81V42.68Zm-52.38-19h4.76V18.87H38.1V14.1H61.9v4.77h4.77v4.76h4.76V47.44H66.67V52.2H61.9V57H38.1V52.2H33.33V47.44H28.57V23.63Z" transform="translate(-14.29 -4.58)"/><rect x="47.61" y="42.86" width="4.77" height="4.76"/><polygon points="38.09 47.62 33.33 47.62 28.57 47.62 23.81 47.62 23.81 52.38 28.57 52.38 33.33 52.38 38.09 52.38 42.85 52.38 47.61 52.38 47.61 47.62 42.85 47.62 38.09 47.62"/><rect x="19.04" y="42.86" width="4.77" height="4.76"/><polygon class="cls-3" points="42.85 42.86 38.09 42.86 38.09 38.1 33.33 38.1 33.33 42.86 28.57 42.86 23.81 42.86 23.81 47.62 28.57 47.62 33.33 47.62 38.09 47.62 42.85 47.62 47.61 47.62 47.61 42.86 42.85 42.86"/><polygon class="cls-4" points="42.85 33.33 42.85 28.57 42.85 23.81 38.09 23.81 33.33 23.81 28.57 23.81 28.57 28.57 28.57 33.33 28.57 38.1 33.33 38.1 33.33 33.33 33.33 28.57 38.09 28.57 38.09 33.33 38.09 38.1 42.85 38.1 42.85 33.33"/><polygon class="cls-3" points="47.61 23.81 47.61 28.57 47.61 33.33 47.61 38.1 47.61 42.86 52.38 42.86 52.38 38.1 52.38 33.33 52.38 28.57 52.38 23.81 52.38 19.05 47.61 19.05 47.61 23.81"/><polygon points="38.09 28.57 33.33 28.57 33.33 33.33 33.33 38.1 38.09 38.1 38.09 33.33 38.09 28.57"/><polygon class="cls-3" points="19.04 28.57 19.04 33.33 19.04 38.1 19.04 42.86 23.81 42.86 23.81 38.1 23.81 33.33 23.81 28.57 23.81 23.81 23.81 19.05 19.04 19.05 19.04 23.81 19.04 28.57"/><polygon points="33.33 42.86 33.33 38.1 28.57 38.1 28.57 33.33 28.57 28.57 28.57 23.81 33.33 23.81 38.09 23.81 42.85 23.81 42.85 28.57 42.85 33.33 42.85 38.1 38.09 38.1 38.09 42.86 42.85 42.86 47.61 42.86 47.61 38.1 47.61 33.33 47.61 28.57 47.61 23.81 47.61 19.05 42.85 19.05 38.09 19.05 33.33 19.05 28.57 19.05 23.81 19.05 23.81 23.81 23.81 28.57 23.81 33.33 23.81 38.1 23.81 42.86 28.57 42.86 33.33 42.86"/><polygon class="cls-3" points="28.57 19.05 33.33 19.05 38.09 19.05 42.85 19.05 47.61 19.05 47.61 14.29 42.85 14.29 38.09 14.29 33.33 14.29 28.57 14.29 23.81 14.29 23.81 19.05 28.57 19.05"/><polygon points="14.28 33.33 14.28 38.1 14.28 42.86 19.04 42.86 19.04 38.1 19.04 33.33 19.04 28.57 19.04 23.81 19.04 19.05 14.28 19.05 14.28 23.81 14.28 28.57 14.28 33.33"/><polygon points="52.38 28.57 52.38 33.33 52.38 38.1 52.38 42.86 57.14 42.86 57.14 38.1 57.14 33.33 57.14 28.57 57.14 23.81 57.14 19.05 52.38 19.05 52.38 23.81 52.38 28.57"/><rect x="19.04" y="14.29" width="4.77" height="4.76"/><rect x="47.61" y="14.29" width="4.77" height="4.76"/><polygon points="33.33 14.29 38.09 14.29 42.85 14.29 47.61 14.29 47.61 9.52 42.85 9.52 38.09 9.52 33.33 9.52 28.57 9.52 23.81 9.52 23.81 14.29 28.57 14.29 33.33 14.29"/><polygon points="66.66 19.05 66.66 14.29 66.66 9.52 61.9 9.52 61.9 4.76 57.14 4.76 57.14 0 52.38 0 47.61 0 42.85 0 38.09 0 33.33 0 28.57 0 23.81 0 19.04 0 14.28 0 14.28 4.76 9.52 4.76 9.52 9.52 4.76 9.52 4.76 14.29 4.76 19.05 0 19.05 0 23.81 0 28.57 0 33.33 0 38.1 0 42.86 0 47.62 4.76 47.62 4.76 42.86 4.76 38.1 4.76 33.33 4.76 28.57 4.76 23.81 9.52 23.81 9.52 19.05 9.52 14.29 14.28 14.29 14.28 9.52 19.04 9.52 19.04 4.76 23.81 4.76 28.57 4.76 33.33 4.76 38.09 4.76 42.85 4.76 47.61 4.76 52.38 4.76 52.38 9.52 57.14 9.52 57.14 14.29 61.9 14.29 61.9 19.05 61.9 23.81 66.66 23.81 66.66 28.57 66.66 33.33 66.66 38.1 66.66 42.86 66.66 47.62 71.42 47.62 71.42 42.86 71.42 38.1 71.42 33.33 71.42 28.57 71.42 23.81 71.42 19.05 66.66 19.05"/><polygon points="61.9 52.38 61.9 57.14 66.66 57.14 66.66 52.38 66.66 47.62 61.9 47.62 61.9 52.38"/><polygon points="9.52 47.62 4.76 47.62 4.76 52.38 4.76 57.14 9.52 57.14 9.52 52.38 9.52 47.62"/><polygon points="57.14 61.9 57.14 66.67 61.9 66.67 61.9 61.9 61.9 57.14 57.14 57.14 57.14 61.9"/><polygon points="14.28 57.14 9.52 57.14 9.52 61.9 9.52 66.67 14.28 66.67 14.28 61.9 14.28 57.14"/><rect x="52.38" y="66.67" width="4.76" height="4.76"/><rect x="47.61" y="71.43" width="4.77" height="4.76"/><rect x="14.28" y="66.67" width="4.76" height="4.76"/><rect x="19.04" y="71.43" width="4.77" height="4.76"/><polygon points="28.57 76.19 23.81 76.19 23.81 80.95 23.81 85.71 28.57 85.71 28.57 80.95 28.57 76.19"/><polygon points="42.85 80.95 42.85 85.71 47.61 85.71 47.61 80.95 47.61 76.19 42.85 76.19 42.85 80.95"/><polygon points="33.33 85.71 28.57 85.71 28.57 90.48 28.57 95.24 33.33 95.24 33.33 90.48 33.33 85.71"/><polygon points="38.09 90.48 38.09 95.24 42.85 95.24 42.85 90.48 42.85 85.71 38.09 85.71 38.09 90.48"/><rect x="33.33" y="95.24" width="4.76" height="4.76"/></g></svg>