<svg width="663" height="568" viewBox="0 0 663 568" fill="none" xmlns="http://www.w3.org/2000/svg">
<path d="M347.86 256.002C347.459 256.002 347.058 255.851 346.757 255.55C346.456 255.249 346.305 254.873 346.28 254.447L344.475 3.60218C344.475 2.74948 345.152 2.02217 346.03 2.02217L512.457 0.818359C512.858 0.818359 513.259 0.968836 513.56 1.26979C513.861 1.57074 514.012 1.94693 514.037 2.37328L515.868 253.193C515.868 254.045 515.19 254.773 514.313 254.773L347.86 256.002C347.885 256.002 347.885 256.002 347.86 256.002ZM347.61 5.1571L349.415 252.842L512.708 251.638L510.902 3.95329L347.61 5.1571Z" fill="#C2AC96"/>
<path d="M346.28 39.0396C345.428 39.0396 344.725 38.3374 344.725 37.4847C344.725 36.632 345.428 35.9047 346.28 35.9047L511.579 34.7009C512.432 34.7009 513.134 35.4031 513.134 36.2558C513.134 37.1085 512.432 37.8358 511.579 37.8358L346.28 39.0396C346.305 39.0396 346.28 39.0396 346.28 39.0396Z" fill="#C2AC96"/>
<path d="M428.792 254.748C427.939 254.748 427.237 254.046 427.237 253.193L425.657 36.9078C425.657 36.0551 426.334 35.3278 427.212 35.3278C428.064 35.3278 428.767 36.03 428.767 36.8827L430.347 253.168C430.372 254.02 429.669 254.748 428.792 254.748Z" fill="#C2AC96"/>
<path d="M543.631 164.863C542.778 164.863 542.076 164.161 542.076 163.308L541.925 142.818C541.925 141.966 542.628 141.238 543.48 141.238C544.333 141.238 545.035 141.941 545.035 142.793L545.186 163.283C545.211 164.161 544.509 164.863 543.631 164.863C543.656 164.863 543.656 164.863 543.631 164.863Z" fill="#C2AC96"/>
<path d="M596.875 188.412C596.022 188.412 595.32 187.71 595.32 186.857L595.169 166.367C595.169 165.515 595.871 164.787 596.724 164.787C597.577 164.787 598.279 165.49 598.279 166.342L598.43 186.832C598.455 187.71 597.752 188.412 596.875 188.412C596.9 188.412 596.875 188.412 596.875 188.412Z" fill="#C2AC96"/>
<path d="M525.047 166.719C524.194 166.719 523.492 166.017 523.492 165.164C523.492 164.312 524.194 163.584 525.047 163.584L628.424 162.832C629.277 162.832 629.979 163.534 629.979 164.387C629.979 165.24 629.277 165.967 628.424 165.967L525.047 166.719Z" fill="#C2AC96"/>
<path d="M553.236 188.739C552.383 188.739 551.681 188.037 551.681 187.184C551.681 186.331 552.383 185.604 553.236 185.604L627.221 185.052C628.073 185.052 628.775 185.754 628.775 186.607C628.775 187.46 628.073 188.187 627.221 188.187L553.236 188.739Z" fill="#C2AC96"/>
<path d="M111.737 308.242C110.885 308.242 110.182 307.54 110.182 306.687L110.032 286.197C110.032 285.344 110.734 284.617 111.587 284.617C112.44 284.617 113.142 285.319 113.142 286.172L113.292 306.662C113.317 307.54 112.615 308.242 111.737 308.242Z" fill="#C2AC96"/>
<path d="M58.8447 332.569C57.992 332.569 57.2898 331.867 57.2898 331.014L57.1393 310.524C57.1393 309.671 57.8165 308.944 58.6943 308.944C59.547 308.944 60.2492 309.646 60.2492 310.499L60.3997 330.989C60.4247 331.867 59.7225 332.569 58.8447 332.569Z" fill="#C2AC96"/>
<path d="M26.994 310.574C26.1413 310.574 25.4391 309.872 25.4391 309.019C25.4391 308.167 26.1162 307.44 26.994 307.44L130.371 306.687C131.224 306.687 131.926 307.389 131.926 308.242C131.926 309.095 131.249 309.822 130.371 309.822L26.994 310.574Z" fill="#C2AC96"/>
<path d="M28.524 332.795C27.6713 332.795 26.9691 332.092 26.9691 331.24C26.9691 330.387 27.6462 329.66 28.524 329.66L102.508 329.108C103.361 329.108 104.063 329.81 104.063 330.663C104.063 331.516 103.361 332.243 102.508 332.243L28.524 332.795Z" fill="#C2AC96"/>
<path d="M661.428 548.027C661.504 557.306 513.635 565.909 331.183 567.238C148.73 568.567 0.760966 562.122 0.685728 552.842C0.61049 543.563 148.479 534.961 330.932 533.631C513.385 532.302 661.353 538.748 661.428 548.027Z" fill="#C2AC96"/>
<path d="M409.079 487.636L409.53 549.858L435.362 549.682L449.732 496.664L455.049 477.027L409.079 487.636Z" fill="#731F07"/>
<g opacity="0.5">
<g opacity="0.5">
<g opacity="0.5">
<g opacity="0.5">
<g opacity="0.5">
<path opacity="0.5" d="M409.079 487.636L409.204 503.511C420.916 502.132 437.594 499.047 449.732 496.664L455.049 477.027L409.079 487.636Z" fill="#731F07"/>
</g>
</g>
</g>
</g>
</g>
<path d="M263.593 488.689L264.044 550.936L238.238 551.112L223.09 498.32L217.472 478.758L263.593 488.689Z" fill="#731F07"/>
<g opacity="0.5">
<g opacity="0.5">
<g opacity="0.5">
<g opacity="0.5">
<g opacity="0.5">
<path opacity="0.5" d="M263.593 488.689L263.718 504.564C252.006 503.335 235.278 500.501 223.09 498.32L217.472 478.758L263.593 488.689Z" fill="#731F07"/>
</g>
</g>
</g>
</g>
</g>
<path d="M163.777 139.107C166.235 163.108 187.026 250.359 197.484 293.37C198.538 297.659 199.466 301.496 200.268 304.806C202.249 312.857 203.428 317.672 203.428 317.672L420.616 311.528C420.616 311.528 421.193 308.744 422.221 303.803C429.72 267.388 460.643 113.827 452.066 98.9294C451.464 97.8761 450.586 96.8478 449.432 95.8446C448.63 95.1173 447.677 94.4151 446.623 93.7129C445.57 93.0107 444.366 92.3335 443.062 91.6564C427.287 83.4805 394.458 76.8093 357.19 72.9973C313.251 68.483 263.167 67.9814 227.68 73.6744C226.677 73.8249 225.674 74.0004 224.67 74.176C222.087 74.6274 219.604 75.0789 217.222 75.5554C170.699 84.7094 161.771 97.4748 161.621 115.432V115.457C161.596 122.504 162.875 130.354 163.777 139.107Z" fill="#A5410F"/>
<path d="M418.936 265.005C419.388 265.005 419.789 264.679 419.864 264.228C419.939 263.852 426.535 225.957 431.827 187.46C434.937 164.838 436.968 146.405 437.896 132.736C439.476 109.237 437.445 104.572 435.789 103.093C426.184 94.5907 376.778 88.396 348.187 85.4617C334.494 84.0573 320.549 83.6811 306.731 84.3582C273.701 85.9633 216.871 90.0011 207.291 98.9545C205.686 100.459 203.78 105.199 206.037 128.649C207.341 142.317 209.924 160.65 213.661 183.196C220.031 221.543 227.73 259.237 227.806 259.613C227.906 260.115 228.408 260.441 228.909 260.341C229.411 260.24 229.737 259.739 229.637 259.237C229.561 258.861 221.887 221.217 215.517 182.895C204.382 115.858 206.388 102.415 208.57 100.359C215.241 94.1141 251.029 88.9729 306.806 86.2643C320.524 85.5871 334.368 85.9633 347.961 87.3678C376.326 90.277 425.306 96.3964 434.51 104.547C436.768 106.528 439.15 119.921 429.946 187.234C424.679 225.706 418.083 263.576 418.008 263.952C417.908 264.454 418.259 264.955 418.786 265.056C418.811 265.005 418.886 265.005 418.936 265.005Z" fill="#731F07"/>
<path d="M161.646 115.432C161.797 122.028 162.925 129.276 163.753 137.276C166.211 161.277 187.001 248.529 197.46 291.54L232.947 291.289C232.947 291.289 192.77 148.813 190.212 113.727C188.531 90.829 205.36 80.1954 217.247 75.5557C170.725 84.7097 161.797 97.4751 161.646 115.432Z" fill="#731F07"/>
<path d="M422.146 306.562C422.146 306.562 458.661 302.75 461.746 315.942C464.154 326.249 461.696 418.642 460.517 458.794C460.191 469.327 468.367 478.155 478.901 478.682C481.233 478.808 483.666 478.883 486.199 478.958C498.312 479.309 512.031 479.033 521.435 476.826C541.9 472.036 542.352 442.944 549.274 394.641C556.195 346.338 562.189 260.341 517.097 244.139C515.542 243.587 513.987 243.086 512.432 242.609C469.019 229.819 427.914 256.027 427.914 256.027C418.108 283.74 422.146 306.562 422.146 306.562Z" fill="#731F07"/>
<path d="M486.173 478.958C498.287 479.309 512.005 479.033 521.41 476.826C541.875 472.036 542.326 442.944 549.248 394.641C556.17 346.338 562.164 260.34 517.071 244.139C515.516 243.587 513.961 243.086 512.407 242.609C504.757 244.49 497.76 249.631 494.048 260.817C483.967 291.213 501.096 396.346 486.173 478.958Z" fill="#A5410F"/>
<path d="M510.049 471.56C519.379 471.485 526.627 467.572 531.016 460.224C537.862 448.712 547.167 350.225 547.568 346.037C547.618 345.536 547.242 345.059 546.715 345.009C546.214 344.959 545.737 345.335 545.687 345.862C545.587 346.89 536.032 448.111 529.386 459.271C519.304 476.199 496.732 467.372 496.506 467.296C496.03 467.096 495.478 467.346 495.303 467.823C495.102 468.299 495.353 468.851 495.829 469.027C496.08 469.127 501.924 471.434 509.197 471.56C509.498 471.56 509.773 471.56 510.049 471.56Z" fill="#731F07"/>
<path d="M505.309 277.796C505.309 277.796 505.911 261.269 518.4 262.497C530.865 263.726 531.667 290.963 520.557 294.574C504.281 299.841 505.309 277.796 505.309 277.796Z" fill="#731F07"/>
<path d="M533.975 272.655C534.05 272.655 534.1 272.655 534.176 272.63C534.677 272.504 535.003 272.003 534.878 271.501C534.727 270.899 531.291 256.428 519.203 253.644C514.313 252.516 509.974 253.419 506.312 256.353C501.021 260.591 498.613 268.191 498.638 271.978C498.638 272.504 499.064 272.905 499.566 272.905C500.093 272.905 500.494 272.479 500.494 271.978C500.469 269.018 502.5 261.795 507.466 257.833C510.651 255.275 514.463 254.497 518.752 255.5C529.711 258.033 532.997 271.827 533.022 271.952C533.147 272.379 533.524 272.655 533.975 272.655Z" fill="#731F07"/>
<path d="M167.94 302.248C170.348 312.054 171.802 317.898 171.802 317.898L435.964 310.424C435.964 310.424 436.666 307.038 437.895 301.044C391.022 293.42 230.363 297.283 167.94 302.248Z" fill="#731F07"/>
<path d="M170.398 352.131C170.498 357.122 170.649 362.389 170.849 367.856C172.68 417.087 179.176 481.968 200.568 487.485C235.404 496.514 451.187 499.649 462.297 478.958C465.608 472.789 467.639 462.406 468.918 449.716C469.169 447.233 469.395 444.649 469.57 442.016C471.251 419.068 471.075 390.528 471.652 365.674C471.802 359.003 472.028 352.583 472.354 346.614C474.712 302.775 439.049 302.424 439.049 302.424C388.614 301.621 314.58 304.506 256.972 307.365C226.952 308.844 201.396 310.324 185.997 311.252C176.091 311.854 170.398 312.205 170.398 312.205C170.398 312.205 169.921 328.958 170.398 352.131Z" fill="#A5410F"/>
<path d="M340.11 451.295C344.449 451.27 348.938 451.195 353.578 451.07C423.199 449.138 463.15 433.188 463.551 433.012C464.128 432.762 464.429 432.11 464.178 431.508C463.928 430.931 463.276 430.63 462.674 430.881C462.272 431.031 422.672 446.856 353.503 448.762C284.259 450.668 246.138 441.088 245.762 441.013C245.135 440.862 244.533 441.213 244.357 441.84C244.207 442.442 244.558 443.069 245.185 443.245C245.536 443.32 279.042 451.747 340.11 451.295Z" fill="#731F07"/>
<path d="M170.398 352.131C170.498 357.122 170.649 362.389 170.849 367.856C172.68 417.087 179.176 481.968 200.569 487.485C235.404 496.514 451.187 499.649 462.298 478.958C465.608 472.789 467.639 462.406 468.919 449.716C469.169 447.233 469.395 444.65 469.571 442.016C459.388 448.913 428.741 458.092 407.649 460.399C319.721 470.055 251.154 458.268 251.154 458.268C262.364 410.541 258.728 334.501 256.947 307.315C226.927 308.794 201.371 310.274 185.972 311.202L170.398 352.131Z" fill="#731F07"/>
<path d="M429.042 313.333C426.484 315.666 423.625 317.873 420.44 319.954C420.34 320.029 420.239 320.08 420.139 320.155C417.907 321.609 415.549 322.964 413.066 324.268C412.164 324.744 411.261 325.196 410.358 325.622C403.11 329.133 394.909 332.042 386.106 334.149C385.304 334.35 384.501 334.525 383.673 334.701C381.341 335.228 378.958 335.679 376.551 336.08C375.748 336.231 374.921 336.356 374.118 336.482C364.814 337.886 355.058 338.413 345.227 337.886C344.073 337.811 342.919 337.761 341.766 337.66C338.681 337.435 335.596 337.083 332.536 336.607C332.461 336.607 332.386 336.582 332.311 336.582C331.383 336.431 330.455 336.306 329.527 336.13C324.536 335.278 319.595 334.099 314.73 332.619C310.492 331.34 306.303 329.81 302.215 328.005C301.513 327.704 300.836 327.378 300.134 327.077C299.281 326.675 298.403 326.274 297.576 325.848C297.5 325.823 297.425 325.773 297.325 325.722C292.409 311.803 287.343 262.297 285.989 247.475C285.713 244.515 285.512 241.581 285.337 238.622C285.312 238.12 285.287 237.593 285.262 237.092C285.212 236.314 285.186 235.562 285.161 234.784C284.936 229.392 284.885 223.975 284.936 218.483C284.936 217.605 284.961 216.702 284.986 215.824C284.986 215.398 284.986 214.947 285.011 214.52C285.011 214.47 285.011 214.395 285.011 214.345C285.036 213.718 285.036 213.091 285.061 212.439C285.212 206.771 285.462 201.028 285.788 195.184C285.813 194.632 285.839 194.106 285.889 193.554C285.914 193.278 285.914 193.002 285.939 192.726C286.139 189.315 286.365 185.854 286.616 182.368C286.641 181.842 286.691 181.29 286.741 180.738C286.766 180.538 286.766 180.337 286.792 180.136C287.393 171.76 288.071 163.132 288.723 154.154C289.074 149.238 289.701 144.674 290.528 140.486C290.629 139.959 290.729 139.458 290.854 138.956C292.56 131.206 295.068 124.811 298.428 119.896C298.704 119.469 299.005 119.043 299.306 118.642C300.41 117.162 301.588 115.858 302.842 114.704C304.071 113.576 305.375 112.572 306.78 111.72C309.388 110.14 312.247 109.111 315.382 108.635C318.341 108.209 321.025 107.607 323.483 106.929C323.934 106.804 324.386 106.679 324.812 106.553C326.191 106.152 327.495 105.701 328.724 105.249C329.351 104.998 329.978 104.773 330.555 104.522C331.032 104.321 331.508 104.121 331.96 103.92C332.16 103.82 332.386 103.744 332.587 103.644C332.762 103.569 332.963 103.469 333.138 103.393C333.464 103.243 333.765 103.092 334.066 102.942C339.107 100.434 341.966 98.1768 341.966 98.1768L376.626 98.5279C376.902 98.9291 377.178 99.3053 377.429 99.6815C377.454 99.7066 377.479 99.7317 377.479 99.7568C378.833 101.537 380.338 103.042 381.943 104.321C382.344 104.647 382.771 104.948 383.197 105.249C383.974 105.801 384.777 106.302 385.604 106.779C386.181 107.105 386.758 107.406 387.31 107.682C387.761 107.908 388.213 108.108 388.664 108.309C388.79 108.359 388.915 108.434 389.04 108.484C389.392 108.635 389.718 108.785 390.069 108.911C390.244 108.986 390.445 109.061 390.62 109.136C391.573 109.513 392.526 109.839 393.479 110.165C393.505 110.165 393.505 110.165 393.53 110.165C401.104 112.673 408.828 113.927 413.643 118.792C414.145 119.294 414.596 119.845 415.048 120.422C415.75 121.375 416.377 122.454 416.879 123.657C417.38 124.861 417.781 126.216 418.057 127.72C418.233 128.573 418.308 129.476 418.333 130.479C418.509 138.103 415.173 150.668 413.618 171.359C413.568 171.96 413.518 172.537 413.493 173.164C413.267 176.5 413.092 180.011 412.966 183.773C412.941 184.325 412.941 184.901 412.916 185.453C412.866 187.46 412.841 189.541 412.841 191.673C412.841 192.776 412.841 193.88 412.841 195.008C412.866 197.215 412.916 199.473 412.966 201.805C412.991 202.507 413.016 203.209 413.041 203.912C413.092 205.341 413.142 206.796 413.242 208.275C413.292 209.053 413.342 209.855 413.367 210.633C413.393 211.185 413.443 211.736 413.468 212.288C413.468 212.464 413.493 212.639 413.493 212.79C413.668 215.498 413.869 218.307 414.145 221.166C414.145 221.317 414.17 221.467 414.195 221.618C414.22 221.994 414.27 222.395 414.295 222.771C414.496 225.054 414.747 227.411 415.023 229.794C415.349 232.653 415.675 235.587 416.076 238.596C417.656 250.584 421.242 274.36 425.08 294.348C425.681 297.508 426.283 300.543 426.885 303.427C426.96 303.728 427.011 304.029 427.086 304.33C427.688 307.59 428.365 310.625 429.042 313.333Z" fill="white"/>
<path d="M436.716 180.914C428.315 180.914 420.239 178.029 413.418 173.189C413.392 173.164 413.342 173.139 413.317 173.114C412.038 172.211 410.834 171.233 409.681 170.23C398.671 160.599 392.802 146.58 390.37 132.259C389.191 125.287 388.037 116.535 388.99 108.484C389.341 108.635 389.667 108.785 390.018 108.91C390.194 108.986 390.395 109.061 390.57 109.136C390.42 110.415 390.37 111.694 390.344 112.973C390.043 128.472 393.078 145.251 401.505 158.442C403.787 162.029 406.596 165.364 409.756 168.248C410.96 169.352 412.239 170.405 413.543 171.358C420.239 176.299 428.214 179.359 436.716 179.359C437.694 179.384 437.694 180.914 436.716 180.914Z" fill="#D7C4AC"/>
<path d="M383.122 105.274C379.811 110.942 376.024 116.309 371.661 121.225C358.619 135.972 340.211 146.455 320.323 147.358C319.897 147.383 319.445 147.408 319.019 147.408C309.062 147.659 299.106 145.251 290.428 140.511C285.663 137.928 281.324 134.617 277.562 130.68C277.914 130.329 278.29 129.978 278.641 129.627C282.152 133.338 286.265 136.498 290.729 138.981C292.811 140.135 294.968 141.163 297.2 142.041C304.774 145.025 312.699 146.154 320.599 145.728C331.759 145.151 342.819 141.464 352.45 135.52C364.864 127.896 374.595 116.811 381.868 104.296C382.294 104.673 382.695 104.974 383.122 105.274Z" fill="#D7C4AC"/>
<path d="M362.832 131.959C355.484 131.884 348.763 127.244 343.22 118.391C338.48 110.817 336.273 102.917 336.198 102.591C335.997 101.889 336.424 101.186 337.101 100.986C337.803 100.785 338.505 101.212 338.706 101.889C338.781 102.19 347.384 132.536 365.967 129.075C370.833 128.172 374.419 125.915 376.676 122.354C381.592 114.579 378.658 103.093 378.633 102.992C378.457 102.29 378.858 101.588 379.56 101.412C380.263 101.237 380.965 101.638 381.14 102.34C381.266 102.867 384.376 115.03 378.858 123.758C376.2 127.946 372.037 130.605 366.444 131.633C365.215 131.884 364.011 131.984 362.832 131.959Z" fill="#D5963D"/>
<path d="M427.187 190.594C426.434 190.82 425.707 191.046 424.955 191.247C424.002 190.82 423.074 190.369 422.121 189.917C419.036 188.463 415.951 186.983 412.867 185.478C411.537 184.826 410.233 184.199 408.904 183.547C385.956 172.387 362.407 161.277 336.424 161.578C328.399 161.678 320.574 162.982 313.176 165.59C307.182 167.697 301.464 170.656 296.147 174.468C292.761 176.901 289.576 179.585 286.541 182.444C283.432 185.328 280.497 188.413 277.663 191.573C277.112 191.422 276.585 191.247 276.058 191.071C279.444 187.284 282.955 183.622 286.717 180.212C290.579 176.7 294.692 173.44 299.156 170.606C304.022 167.521 309.113 165.189 314.329 163.534C336.801 156.386 361.805 161.477 383.599 170.305C392.201 173.791 400.628 177.829 409.029 181.892C410.333 182.519 411.613 183.146 412.917 183.773C417.632 186.105 422.397 188.387 427.187 190.594Z" fill="#D7C4AC"/>
<path d="M413.417 212.313C409.756 211.561 406.119 210.783 402.458 210.006C389.416 207.272 376.375 204.438 363.309 201.855C350.619 199.347 337.652 197.366 324.661 198.219C310.391 199.147 295.268 204.463 284.961 214.545C284.961 214.495 284.961 214.42 284.961 214.37C284.986 213.743 284.986 213.116 285.011 212.464C287.719 209.956 290.704 207.749 293.889 205.818C315.407 192.927 341.164 195.886 364.663 200.576C380.915 203.811 397.116 207.222 413.317 210.658C413.342 211.21 413.367 211.762 413.417 212.313Z" fill="#D7C4AC"/>
<path d="M333.389 249.532C331.308 260.09 326.643 270.573 321.953 280.204C317.188 289.985 311.219 299.189 303.319 306.738C302.617 307.415 301.513 306.336 302.241 305.659C310.366 297.91 316.385 288.38 321.201 278.298C325.364 269.57 329.402 260.24 331.583 250.786C333.765 241.406 333.013 230.471 323.984 224.929C316.461 220.339 306.629 220.916 299.03 224.954C293.513 227.888 289.049 232.202 285.262 237.092C285.212 236.315 285.187 235.562 285.161 234.785C289.701 229.242 295.168 224.502 301.94 221.944C309.789 218.96 319.57 219.562 326.392 224.728C334.142 230.622 335.17 240.603 333.389 249.532Z" fill="#D7C4AC"/>
<path d="M388.84 310.575C377.328 303.226 367.021 294.047 358.494 283.363C346.205 267.99 329.301 239.851 351.898 225.355C361.378 219.26 373.441 217.956 384.426 217.806C394.432 217.655 404.389 218.884 414.07 221.217C414.07 221.367 414.095 221.517 414.12 221.668C414.145 222.044 414.195 222.445 414.22 222.822C403.561 220.213 392.577 218.959 381.592 219.411C371.134 219.837 359.572 221.392 350.945 227.863C341.038 235.311 340.687 247.425 344.901 258.234C349.089 268.943 356.262 278.849 363.861 287.376C371.384 295.828 380.062 303.176 389.617 309.27C390.445 309.772 389.692 311.101 388.84 310.575Z" fill="#D7C4AC"/>
<path d="M275.832 167.471C270.515 171.86 263.318 172.312 256.922 170.23C254.715 169.503 252.634 168.525 250.677 167.371C250.953 166.895 251.229 166.418 251.48 165.942C258.477 170.205 266.327 172.211 273.725 167.145C279.87 162.957 280.773 155.534 277.412 149.188C275.431 145.477 272.346 142.643 268.96 140.185C269.286 139.784 269.612 139.408 269.913 139.031C273.901 141.966 277.512 145.402 279.519 150.041C282.202 156.211 281.124 163.108 275.832 167.471Z" fill="#D7C4AC"/>
<path d="M456.354 176.751C455.877 177.077 455.35 177.403 454.774 177.779C447.124 174.82 440.228 169.854 435.111 163.308C427.512 153.577 424.327 140.912 425.907 128.774C426.359 129.2 426.835 129.652 427.287 130.103C426.083 141.489 429.193 153.251 436.29 162.355C441.482 168.976 448.529 173.917 456.354 176.751Z" fill="#D7C4AC"/>
<path d="M323.006 124.485C321.627 125.163 320.198 125.639 318.768 125.94C313.276 127.119 307.432 125.865 302.542 122.956C301.037 122.053 299.632 121.024 298.353 119.896C297.25 118.918 296.196 117.839 295.243 116.711C295.695 116.46 296.146 116.184 296.573 115.958C297.4 116.911 298.278 117.814 299.231 118.667C300.284 119.595 301.388 120.448 302.592 121.2C307.206 124.134 312.849 125.589 318.166 124.536C319.545 124.26 320.925 123.808 322.254 123.181C328.9 119.971 332.11 113.2 330.806 106.002C330.731 105.525 330.605 105.049 330.505 104.597C330.982 104.397 331.458 104.196 331.91 103.996C332.211 105.149 332.436 106.328 332.562 107.557C333.214 114.755 329.527 121.325 323.006 124.485Z" fill="#D7C4AC"/>
<path d="M312.17 387.719C312.17 387.719 309.587 388.822 305.398 390.703C304.194 391.23 302.89 391.832 301.461 392.484C299.555 393.337 297.498 394.29 295.266 395.343C294.012 395.92 292.683 396.547 291.354 397.174C274.651 405.074 252.706 416.36 244.631 424.385C244.054 424.962 243.527 425.514 243.001 426.065C230.837 438.856 229.759 447.784 226.724 446.706C223.564 445.577 221.357 438.505 224.818 432.762C227.226 428.799 228.354 423.532 231.389 417.413C232.217 415.758 233.17 414.052 234.348 412.297C239.515 404.522 248.568 395.644 253.333 389.324C253.634 388.923 253.935 388.521 254.186 388.12C258.023 382.603 257.873 372.997 266.074 368.257C270.086 365.95 275.353 365.323 280.62 365.549C281.548 365.574 282.501 365.649 283.429 365.724C284.808 365.85 286.187 366.025 287.517 366.226C289.347 366.502 291.103 366.853 292.708 367.204C294.263 367.555 295.667 367.906 296.896 368.232C299.856 369.035 301.712 369.687 301.712 369.687L312.17 387.719Z" fill="white"/>
<path d="M280.622 365.548C276.936 373.524 267.807 389.223 253.311 389.324C253.612 388.922 253.913 388.521 254.164 388.12C258.001 382.602 257.85 372.997 266.051 368.257C270.064 365.95 275.356 365.323 280.622 365.548Z" fill="#425045"/>
<path d="M242.979 426.065C230.815 438.856 229.737 447.784 226.702 446.706C223.542 445.577 221.335 438.505 224.796 432.762C227.204 428.799 228.332 423.532 231.367 417.413C235.48 419.143 240.019 421.877 242.979 426.065Z" fill="#425045"/>
<path d="M305.376 390.703C304.172 391.23 302.868 391.832 301.439 392.484C297.777 388.296 295.194 382.803 293.815 376.182C293.112 372.822 292.837 369.712 292.711 367.229C294.266 367.58 295.671 367.931 296.899 368.257C297.025 370.339 297.326 372.772 297.852 375.38C298.956 380.571 301.138 386.365 305.376 390.703Z" fill="#425045"/>
<path d="M287.52 366.226C286.191 366.025 284.837 365.849 283.432 365.724C283.131 368.357 282.83 372.721 283.357 377.687C284.21 385.712 286.943 392.333 291.332 397.174C292.686 396.547 293.99 395.92 295.244 395.343C286.291 386.565 286.893 371.868 287.52 366.226Z" fill="#425045"/>
<path d="M301.414 361.636C300.31 389.249 317.515 390.854 317.515 390.854C317.515 390.854 321.051 390.753 329.202 388.521C329.954 388.321 330.756 388.095 331.609 387.844C336.901 386.289 343.798 383.957 352.55 380.421C353.579 379.994 354.657 379.568 355.736 379.116C361.454 376.734 367.924 373.85 375.147 370.389C386.082 365.172 398.797 358.601 413.468 350.375C455.752 326.675 492.895 293.746 506.613 266.56C515.893 248.227 514.513 232.477 496.832 223.975C493.723 222.47 490.462 221.618 487.127 221.241C464.806 218.809 442.435 240.227 442.435 240.227C397.418 270.899 383.499 296.856 365.14 317.772C364.388 318.65 363.61 319.503 362.833 320.355C362.331 320.907 361.83 321.434 361.278 321.985C358.319 325.045 354.908 328.08 351.271 330.989C339.158 340.745 324.411 349.447 314.104 355.065C313.376 355.467 312.674 355.843 311.997 356.219C305.627 359.63 301.414 361.636 301.414 361.636Z" fill="#131E07"/>
<path d="M312.022 356.219C312.448 358.2 313.05 360.181 313.753 362.138C314.028 362.865 314.304 363.617 314.605 364.345C318.969 375.204 326.393 384.985 329.227 388.521C329.979 388.321 330.781 388.095 331.634 387.844C329.578 385.336 321.226 374.753 316.637 363.191C316.336 362.464 316.06 361.711 315.809 360.984C315.107 359.028 314.555 357.047 314.154 355.09C313.401 355.467 312.699 355.843 312.022 356.219Z" fill="#425045"/>
<path d="M506.638 266.56C486.45 249.105 485.672 230.923 487.127 221.267C490.462 221.618 493.723 222.496 496.832 223.976C514.513 232.477 515.918 248.202 506.638 266.56Z" fill="#425045"/>
<path d="M313.727 362.138C314.003 362.865 314.279 363.617 314.58 364.345C315.232 363.968 315.909 363.592 316.612 363.191C333.064 353.636 357.491 336.105 385.003 313.96C410.785 293.194 440.178 267.287 443.789 259.488C445.746 255.274 445.846 252.064 444.115 250.008C441.532 246.898 435.814 247.55 433.231 248.051C432.579 248.177 432.153 248.829 432.303 249.481C432.428 249.982 432.88 250.334 433.356 250.359C433.457 250.359 433.532 250.359 433.632 250.334C436.165 249.857 440.654 249.506 442.31 251.487C443.689 253.142 442.711 256.202 441.658 258.509C438.748 264.804 414.321 287.376 383.523 312.154C361.78 329.66 334.568 350.024 315.759 361.009C315.082 361.385 314.405 361.762 313.727 362.138Z" fill="#425045"/>
<path d="M306.705 357.072C310.969 370.715 316.837 382.778 326.468 391.129C326.468 391.129 320.574 397.199 313.777 394.791C308.586 392.96 295.62 372.746 297.024 360.482C300.586 357.623 303.846 356.269 306.705 357.072Z" fill="#425045"/>
<path d="M422.221 385.06C422.221 385.06 424.879 385.988 429.168 387.593C430.397 388.045 431.751 388.546 433.206 389.098C435.162 389.825 437.294 390.653 439.576 391.556C440.88 392.057 442.209 392.584 443.614 393.136C460.793 399.957 483.415 409.788 491.992 417.287C492.594 417.814 493.171 418.34 493.722 418.842C506.688 430.805 508.344 439.683 511.278 438.379C514.363 437.05 516.118 429.852 512.281 424.36C509.623 420.547 508.168 415.356 504.732 409.462C503.804 407.857 502.726 406.227 501.447 404.547C495.804 397.123 486.174 388.847 481.032 382.828C480.706 382.452 480.38 382.051 480.104 381.699C475.916 376.433 475.44 366.852 466.963 362.664C462.825 360.608 457.508 360.332 452.266 360.884C451.338 360.984 450.41 361.109 449.482 361.26C448.103 361.485 446.749 361.736 445.445 362.012C443.639 362.413 441.908 362.865 440.328 363.341C438.798 363.793 437.419 364.219 436.215 364.645C433.306 365.624 431.5 366.426 431.5 366.426L422.221 385.06Z" fill="white"/>
<path d="M452.266 360.883C456.48 368.608 466.561 383.681 481.057 382.853C480.731 382.477 480.405 382.075 480.129 381.724C475.941 376.458 475.465 366.877 466.988 362.689C462.825 360.607 457.508 360.332 452.266 360.883Z" fill="#425045"/>
<path d="M493.722 418.842C506.689 430.805 508.344 439.683 511.278 438.379C514.363 437.05 516.118 429.852 512.281 424.36C509.623 420.548 508.168 415.356 504.732 409.462C500.77 411.469 496.406 414.478 493.722 418.842Z" fill="#425045"/>
<path d="M429.193 387.593C430.422 388.044 431.776 388.546 433.231 389.098C436.617 384.684 438.849 379.041 439.802 372.319C440.278 368.934 440.378 365.799 440.303 363.316C438.773 363.767 437.394 364.194 436.19 364.62C436.19 366.702 436.065 369.159 435.689 371.768C434.961 377.059 433.156 382.978 429.193 387.593Z" fill="#425045"/>
<path d="M439.601 391.555C440.905 392.057 442.234 392.583 443.639 393.135C447.702 388.044 450.009 381.273 450.335 373.197C450.536 368.206 449.959 363.868 449.507 361.259C448.128 361.485 446.774 361.736 445.47 362.012C446.423 367.604 447.977 382.226 439.601 391.555Z" fill="#425045"/>
<path d="M220.507 279.601C236.984 305.207 276.534 332.117 318.743 352.356C358.996 371.643 384.251 380.721 398.822 385.01C399.298 385.16 399.775 385.286 400.251 385.411C411.161 388.521 415.55 388.772 415.55 388.772C415.55 388.772 432.604 386.063 429.745 358.576C429.745 358.576 424.679 354.664 417.105 348.82C416.453 348.319 415.775 347.792 415.098 347.265C400.678 336.155 378.808 319.327 364.488 308.317C324.361 277.469 320.674 279.275 283.682 248.979C283.682 248.979 260.383 228.564 239.141 229.994C234.526 230.295 230.012 231.449 225.874 233.781C207.917 243.888 208.419 260.791 220.507 279.601Z" fill="#131E07"/>
<path d="M398.847 384.985C398.898 385.06 398.948 385.135 399.023 385.186C399.198 385.336 399.399 385.436 399.6 385.487C399.825 385.537 400.051 385.512 400.277 385.411C400.402 385.361 400.553 385.261 400.653 385.136C408.653 376.634 413.368 363.015 415.651 354.789C415.876 353.962 416.077 353.184 416.278 352.482C416.679 350.902 416.955 349.623 417.13 348.82C416.478 348.319 415.801 347.792 415.124 347.266C415.099 347.316 415.099 347.341 415.099 347.391C415.099 347.441 414.798 348.971 414.171 351.379C413.995 352.081 413.795 352.858 413.569 353.686C411.362 361.661 406.722 375.304 399.023 383.53C398.597 383.957 398.546 384.534 398.847 384.985Z" fill="#425045"/>
<path d="M239.141 229.994C239.141 239.198 237.837 269.87 220.532 279.601C208.444 260.791 207.942 243.888 225.899 233.781C230.012 231.449 234.526 230.295 239.141 229.994Z" fill="#425045"/>
<path d="M283.531 260.19C287.619 267.764 318.618 291.715 345.703 310.775C372.614 329.735 396.615 344.858 413.543 353.686C414.271 354.062 414.973 354.414 415.65 354.765C415.876 353.937 416.076 353.16 416.277 352.457C415.575 352.106 414.872 351.73 414.17 351.354C394.909 341.222 368.501 323.942 347.058 308.844C314.755 286.097 288.898 265.156 285.588 259.061C284.384 256.855 283.231 253.845 284.484 252.114C285.989 250.033 290.504 250.083 293.062 250.384C293.112 250.384 293.162 250.384 293.212 250.384C293.764 250.384 294.24 249.983 294.341 249.431C294.466 248.779 294.015 248.152 293.338 248.052C290.729 247.726 284.986 247.45 282.604 250.71C280.998 252.942 281.299 256.127 283.531 260.19Z" fill="#425045"/>
<path d="M424.177 354.338C420.791 368.232 415.725 380.647 406.647 389.6C406.647 389.6 412.916 395.268 419.537 392.459C424.604 390.302 436.24 369.311 434.058 357.147C430.322 354.514 426.986 353.36 424.177 354.338Z" fill="#425045"/>
<path d="M475.289 236.44C469.445 250.459 455.727 249.983 440.905 228.715C432.328 216.401 424.804 203.561 418.91 192.726C416.628 188.538 414.622 184.651 412.866 181.215L413.092 160.901L438.196 144.749C438.196 144.749 447.325 158.944 456.655 176.5C468.216 198.219 480.054 225.029 475.289 236.44Z" fill="#E8A36F"/>
<path d="M384.251 266.459C396.916 257.807 412.465 247.625 418.635 242.107C433.808 228.514 460.442 206.745 474.361 217.454C474.361 217.454 485.898 239.875 467.038 254.697C449.081 268.817 408.803 284.542 390.019 290.536C387.837 282.586 385.354 274.635 384.251 266.459Z" fill="#E8A36F"/>
<path d="M438.949 226.709C439.15 226.709 439.35 226.634 439.526 226.483C446.573 220.364 456.58 216.577 456.68 216.527C457.157 216.351 457.407 215.799 457.232 215.323C457.056 214.846 456.505 214.595 456.028 214.771C455.602 214.921 445.595 218.734 438.297 225.054C437.896 225.405 437.871 225.981 438.197 226.383C438.372 226.634 438.673 226.734 438.949 226.709Z" fill="#B05935"/>
<path d="M440.479 225.455C440.93 225.43 441.306 225.104 441.357 224.652C441.958 220.439 447.225 216.351 447.275 216.301C447.677 215.975 447.752 215.398 447.451 214.972C447.125 214.571 446.548 214.47 446.122 214.796C445.871 214.972 440.203 219.411 439.476 224.377C439.4 224.903 439.751 225.38 440.278 225.43C440.353 225.455 440.429 225.455 440.479 225.455Z" fill="#B05935"/>
<path d="M459.138 174.845C459.138 174.845 458.285 175.472 456.705 176.525C456.605 176.6 456.479 176.675 456.379 176.751C455.902 177.077 455.376 177.403 454.799 177.779C452.993 178.907 450.686 180.287 447.977 181.766C447.551 181.992 447.1 182.243 446.648 182.469C441.382 185.252 434.71 188.287 427.212 190.594C426.459 190.82 425.732 191.046 424.98 191.246C424.829 191.297 424.704 191.322 424.553 191.372C424.052 191.522 423.575 191.648 423.048 191.773C421.719 192.124 420.34 192.45 418.96 192.726C417.531 193.027 416.076 193.303 414.622 193.529C414.622 193.529 413.945 192.877 412.791 191.698L412.916 181.215L413.142 160.9L413.619 118.792C417.305 121.25 421.468 124.51 425.933 128.749C426.384 129.175 426.861 129.626 427.312 130.078C429.469 132.209 431.726 134.567 434.008 137.175C434.359 137.576 434.685 137.953 435.036 138.354C438.773 142.693 442.635 147.734 446.548 153.552C446.899 154.054 447.225 154.58 447.576 155.107C451.388 160.9 455.276 167.446 459.138 174.845Z" fill="white"/>
<path d="M424.503 191.372C424.001 191.523 423.525 191.648 422.998 191.773C419.111 172.939 423.073 153.151 433.983 137.201C434.334 137.602 434.66 137.978 435.011 138.379C424.503 153.903 420.766 173.089 424.503 191.372Z" fill="#D7C4AC"/>
<path d="M447.953 181.767C447.526 181.992 447.075 182.243 446.623 182.469C442.761 173.415 442.561 162.957 446.548 153.552C446.899 154.054 447.225 154.581 447.577 155.107C444.191 163.835 444.442 173.415 447.953 181.767Z" fill="#D7C4AC"/>
<path d="M266.377 146.028C266.377 146.028 221.736 217.705 230.639 238.22C236.683 252.139 250.402 251.487 264.898 229.994C285.312 199.773 299.432 166.593 299.432 166.593L266.377 146.028Z" fill="#E8A36F"/>
<path d="M322.104 266.911C309.313 258.435 293.614 248.503 287.369 243.086C271.995 229.719 245.06 208.326 231.291 219.261C231.291 219.261 220.081 241.832 239.141 256.403C257.299 270.272 297.802 285.395 316.687 291.113C318.768 283.088 321.126 275.112 322.104 266.911Z" fill="#E8A36F"/>
<path d="M266.853 227.963C266.653 227.963 266.452 227.888 266.277 227.737C259.129 221.718 249.072 218.082 248.972 218.031C248.47 217.856 248.219 217.304 248.395 216.828C248.571 216.326 249.122 216.075 249.599 216.251C250.025 216.401 260.082 220.063 267.48 226.283C267.882 226.609 267.932 227.211 267.606 227.612C267.405 227.863 267.129 227.988 266.853 227.963Z" fill="#B05935"/>
<path d="M265.299 226.734C264.847 226.709 264.471 226.383 264.396 225.931C263.744 221.743 258.402 217.705 258.352 217.655C257.925 217.354 257.85 216.752 258.151 216.326C258.452 215.9 259.054 215.824 259.48 216.125C259.731 216.301 265.474 220.665 266.252 225.605C266.327 226.107 265.976 226.608 265.474 226.684C265.399 226.734 265.349 226.734 265.299 226.734Z" fill="#B05935"/>
<path d="M320.599 145.753C320.524 146.279 320.424 146.831 320.323 147.358C319.997 149.063 319.571 150.819 319.019 152.599C317.941 156.186 316.286 159.897 314.33 163.534C313.953 164.211 313.577 164.888 313.176 165.565C304.398 180.789 290.73 194.407 290.73 194.407C289.075 194.181 287.444 193.88 285.839 193.579C283.03 193.002 280.297 192.325 277.663 191.523C277.112 191.372 276.585 191.196 276.058 191.021C258.528 185.503 245.913 176.349 245.913 176.349C247.493 173.189 249.098 170.18 250.703 167.321C250.979 166.844 251.255 166.368 251.506 165.891C257.424 155.433 263.343 146.981 268.986 140.16C269.312 139.759 269.638 139.382 269.939 139.006C272.547 135.896 275.105 133.138 277.563 130.68C277.914 130.329 278.29 129.978 278.641 129.626C284.961 123.507 290.629 119.419 295.194 116.736C295.645 116.485 296.097 116.209 296.523 115.983C302.592 112.598 306.404 111.795 306.655 111.77C311.546 114.805 315.558 119.118 318.117 124.56C318.342 125.012 318.543 125.488 318.743 125.965C321.026 131.507 321.828 138.153 320.599 145.753Z" fill="white"/>
<path d="M320.599 145.752C320.524 146.279 320.423 146.83 320.323 147.357C319.897 147.382 319.445 147.407 319.019 147.407C309.062 147.658 299.106 145.25 290.428 140.51C285.663 137.927 281.325 134.617 277.563 130.679C277.914 130.328 278.29 129.977 278.641 129.626C282.152 133.338 286.265 136.498 290.729 138.981C292.811 140.134 294.968 141.163 297.2 142.04C304.774 145.05 312.724 146.178 320.599 145.752Z" fill="#D7C4AC"/>
<path d="M314.304 163.534C313.928 164.211 313.552 164.888 313.151 165.565C307.157 167.672 301.439 170.631 296.122 174.443C292.736 176.876 289.551 179.559 286.516 182.418C283.406 185.302 280.472 188.387 277.638 191.547C277.086 191.397 276.56 191.221 276.033 191.046C279.419 187.259 282.93 183.597 286.692 180.186C290.554 176.675 294.667 173.415 299.131 170.581C304.022 167.521 309.088 165.189 314.304 163.534Z" fill="#D7C4AC"/>
<path d="M275.832 167.471C270.515 171.86 263.317 172.311 256.922 170.23C254.715 169.502 252.634 168.524 250.677 167.371C250.953 166.894 251.229 166.418 251.48 165.941C258.477 170.205 266.327 172.211 273.725 167.145C279.87 162.957 280.773 155.533 277.412 149.188C275.431 145.476 272.346 142.642 268.96 140.185C269.286 139.783 269.612 139.407 269.913 139.031C273.901 141.965 277.512 145.401 279.519 150.041C282.202 156.21 281.124 163.107 275.832 167.471Z" fill="#D7C4AC"/>
<path d="M318.768 125.965C313.276 127.143 307.432 125.889 302.542 122.98C301.037 122.077 299.633 121.049 298.354 119.921C297.25 118.942 296.197 117.864 295.244 116.735C295.695 116.485 296.147 116.209 296.573 115.983C297.401 116.936 298.278 117.839 299.231 118.692C300.285 119.62 301.388 120.472 302.592 121.225C307.207 124.159 312.85 125.614 318.166 124.56C318.367 125.012 318.568 125.488 318.768 125.965Z" fill="#D7C4AC"/>
<path d="M291.733 194.156C291.908 194.156 292.084 194.106 292.209 193.981C307.708 180.739 316.561 160.826 316.637 160.65C316.812 160.274 316.637 159.822 316.235 159.647C315.859 159.471 315.408 159.647 315.232 160.048C315.157 160.249 306.429 179.836 291.206 192.852C290.88 193.128 290.855 193.604 291.131 193.93C291.306 194.056 291.507 194.156 291.733 194.156Z" fill="#131E07"/>
<path d="M309.439 173.014C309.489 173.014 309.514 173.014 309.564 173.014C315.132 172.035 320.173 168.198 320.373 168.023C320.699 167.772 320.775 167.295 320.524 166.969C320.273 166.643 319.797 166.568 319.47 166.819C319.42 166.844 314.53 170.581 309.313 171.509C308.912 171.584 308.636 171.985 308.711 172.387C308.762 172.763 309.088 173.014 309.439 173.014Z" fill="#131E07"/>
<path d="M412.916 190.77C413.317 190.77 413.643 190.469 413.668 190.068C413.744 188.914 415.574 161.503 411.386 149.816C411.236 149.414 410.809 149.214 410.408 149.364C410.007 149.515 409.806 149.941 409.957 150.342C414.02 161.728 412.164 189.717 412.139 189.993C412.113 190.419 412.414 190.77 412.841 190.795C412.891 190.77 412.916 190.77 412.916 190.77Z" fill="#131E07"/>
<path d="M312.699 312.305L303.821 295.702C301.614 291.564 304.623 286.548 309.313 286.573L447.074 287.05L443.162 308.417L312.699 312.305Z" fill="#A36A24"/>
<path d="M440.378 309.12L317.113 310.023C314.128 310.048 311.971 307.64 312.272 304.681L320.122 228.464C320.423 225.48 323.082 223.047 326.066 223.022L449.331 222.119C452.316 222.094 454.473 224.502 454.172 227.461L446.322 303.678C446.021 306.662 443.363 309.095 440.378 309.12Z" fill="#D5963D"/>
<path d="M315.683 310.875C315.633 310.875 315.608 310.875 315.558 310.875C314.981 310.8 314.579 310.298 314.655 309.722L324.285 228.063C324.36 227.486 324.862 227.085 325.439 227.16C326.016 227.235 326.417 227.737 326.342 228.314L316.711 309.972C316.636 310.474 316.21 310.875 315.683 310.875Z" fill="#A36A24"/>
<path d="M375.322 265.03C374.896 271.15 379.435 276.391 385.479 276.742C391.523 277.094 396.74 272.404 397.166 266.284C397.593 260.165 393.053 254.923 387.009 254.597C380.99 254.221 375.749 258.911 375.322 265.03Z" fill="#A36A24"/>
<path d="M441.406 313.308L316.435 314.211C313.677 314.236 311.545 311.828 311.896 309.095L313.025 300.367L447.149 299.389L445.87 309.346C445.569 311.603 443.663 313.283 441.406 313.308Z" fill="#A36A24"/>
<path d="M117.982 318.299C117.982 318.299 116.577 310.299 117.455 298.01C118.86 278.398 132.227 261.57 151.037 255.851C166.586 251.137 187.151 248.127 208.268 254.347C209.823 254.798 211.378 255.3 212.933 255.877C258 272.078 252.031 358.075 245.11 406.378C238.188 454.706 237.736 483.798 217.271 488.564C207.867 490.745 194.148 491.021 182.035 490.695C179.502 490.62 177.069 490.52 174.737 490.419C174.737 490.419 149.281 492.827 136.114 481.717C122.948 470.607 117.982 318.299 117.982 318.299Z" fill="#731F07"/>
<path d="M182.009 490.695C194.123 491.046 207.841 490.771 217.246 488.564C237.711 483.798 238.162 454.681 245.084 406.378C252.006 358.075 258 272.078 212.907 255.877C211.352 255.325 209.797 254.823 208.243 254.347C200.593 256.228 193.596 261.369 189.884 272.554C179.802 302.951 196.932 408.084 182.009 490.695Z" fill="#A5410F"/>
<path d="M207.34 482.494C216.669 482.419 223.917 478.507 228.306 471.159C235.178 459.647 244.457 361.16 244.859 356.972C244.909 356.47 244.533 355.994 244.006 355.944C243.479 355.894 243.028 356.27 242.978 356.796C242.877 357.825 233.322 459.045 226.676 470.206C222.463 477.278 215.691 480.764 206.562 480.639C199.615 480.538 193.847 478.256 193.797 478.231C193.32 478.03 192.769 478.281 192.593 478.758C192.392 479.234 192.643 479.786 193.12 479.961C193.371 480.062 199.214 482.369 206.487 482.494C206.763 482.494 207.064 482.494 207.34 482.494Z" fill="#731F07"/>
<path d="M196.857 283.163C197.383 283.163 197.785 282.737 197.785 282.21C197.76 279.251 199.791 272.028 204.757 268.065C207.942 265.507 211.754 264.73 216.043 265.733C226.977 268.266 230.288 282.06 230.313 282.185C230.438 282.687 230.94 283.013 231.441 282.887C231.943 282.762 232.269 282.26 232.144 281.759C231.993 281.157 228.557 266.686 216.469 263.902C211.578 262.774 207.24 263.676 203.578 266.611C198.286 270.849 195.879 278.448 195.904 282.235C195.904 282.762 196.33 283.163 196.857 283.163Z" fill="#731F07"/>
<path d="M201.797 288.906C201.797 288.906 202.399 272.379 214.889 273.608C227.353 274.837 228.156 302.073 217.046 305.684C200.769 310.951 201.797 288.906 201.797 288.906Z" fill="#731F07"/>
<path d="M339.986 51.9051C339.986 51.9051 326.142 60.0058 331.057 65.5985C335.973 71.2163 341.34 70.0877 341.34 70.0877C341.34 70.0877 334.569 77.8874 342.444 82.502C350.293 87.1166 359.397 68.3071 359.397 68.3071C359.397 68.3071 351.221 46.8642 339.986 51.9051Z" fill="#A36A24"/>
<path d="M336.073 48.3942C336.073 48.3942 326.668 34.8764 330.054 27.5281C333.44 20.1798 339.007 21.2081 339.007 21.2081C339.007 21.2081 337.352 7.64012 344.048 4.15408C350.745 0.668041 359.372 4.90646 359.372 4.90646C359.372 4.90646 364.287 3.70265 372.363 4.17916C379.711 4.60551 381.091 10.2735 381.091 10.2735C381.091 10.2735 400.377 6.18552 406.471 12.5808C412.565 18.976 404.089 27.2021 404.089 27.2021C404.089 27.2021 423.726 29.058 420.265 42.4504C417.581 52.8333 401.505 52.5825 401.505 52.5825C401.505 52.5825 403.963 64.7711 392.602 65.2476C388.038 65.4482 349.165 45.0085 336.073 48.3942Z" fill="#A36A24"/>
<path d="M339.484 101.262C344.425 106.102 350.369 108.66 355.385 110.04C363.184 112.222 372.188 110.09 378.257 106.529L378.708 94.8417L378.809 92.4591L378.984 87.9448L351.246 68.3578L349.641 67.2292L348.563 66.4768L348.162 67.48L347.71 68.6336L347.836 69.1352C345.353 80.421 343.948 93.2616 339.484 101.262Z" fill="#E8A36F"/>
<path d="M378.358 104.096C367.072 100.986 361.178 90.8036 358.72 85.1607C364.163 89.8757 370.809 93.0608 376.903 92.6846C377.555 92.6344 378.207 92.5592 378.809 92.4589L378.358 104.096Z" fill="#131E07"/>
<path d="M347.259 67.4798C347.309 67.5049 347.384 67.5049 347.434 67.5049C347.51 67.8811 347.585 68.2573 347.685 68.6335C347.735 68.809 347.761 68.9595 347.811 69.1351C350.996 80.5211 364.94 93.412 376.903 92.6847C377.555 92.6345 378.207 92.5592 378.809 92.4589C390.095 90.4777 393.38 77.5618 392.352 68.157C392.352 68.157 392.377 67.8058 392.452 67.1789C392.477 66.9531 392.502 66.7024 392.527 66.4265C392.628 65.5487 392.753 64.3449 392.929 62.9404C392.929 62.9154 392.929 62.9154 392.929 62.8903C393.455 58.6769 394.308 52.4823 395.537 46.4131C397.669 35.7042 391.399 19.3775 369.605 14.3616C347.811 9.34569 338.707 25.0956 338.757 36.4816C338.757 39.3407 339.309 42.6512 340.111 46.0118C338.005 46.0369 335.722 47.0652 334.343 50.6766C331.76 57.3226 339.484 66.276 347.259 67.4798Z" fill="#E8A36F"/>
<path d="M383.398 74.3769C379.762 75.3299 375.924 74.1762 373.467 71.3172C372.89 70.64 373.843 69.6118 374.445 70.2889C376.577 72.7718 379.812 73.8502 382.997 72.9975C383.9 72.7718 384.276 74.1261 383.398 74.3769Z" fill="#B05935"/>
<g opacity="0.5">
<g opacity="0.5">
<g opacity="0.5">
<g opacity="0.5">
<g opacity="0.5">
<g opacity="0.5">
<path opacity="0.5" d="M360.626 61.7367C360.501 62.9405 363.41 64.2697 367.147 64.6961C370.884 65.1224 374.018 64.4704 374.169 63.2666C374.319 62.0627 371.385 60.7335 367.648 60.3072C363.886 59.8808 360.751 60.5078 360.626 61.7367Z" fill="#B05935"/>
</g>
</g>
</g>
</g>
</g>
</g>
<g opacity="0.5">
<g opacity="0.5">
<g opacity="0.5">
<g opacity="0.5">
<g opacity="0.5">
<g opacity="0.5">
<path opacity="0.5" d="M392.452 67.2041C392.477 66.9784 392.502 66.7276 392.527 66.4517C392.627 65.5739 392.753 64.3701 392.928 62.9657C392.928 62.9406 392.928 62.9406 392.928 62.9155C389.869 62.7901 387.486 63.4171 387.386 64.4704C387.26 65.4987 389.417 66.6273 392.452 67.2041Z" fill="#B05935"/>
</g>
</g>
</g>
</g>
</g>
</g>
<path d="M368.451 47.818C368.1 47.7177 367.799 47.5171 367.523 47.2412C366.645 46.3634 366.645 44.9339 367.523 44.031C367.723 43.8304 372.764 38.9399 378.834 41.7237C379.962 42.2504 380.464 43.5796 379.937 44.7333C379.41 45.8618 378.081 46.3634 376.928 45.8368C373.667 44.332 370.733 47.2161 370.708 47.2412C370.106 47.8682 369.228 48.0438 368.451 47.818Z" fill="#A36A24"/>
<path d="M391.85 50.4513C391.223 50.2506 390.671 49.7992 390.42 49.1221C389.718 47.3414 386.583 46.9652 385.781 46.9401C384.527 46.9401 383.524 45.9119 383.549 44.6579C383.549 43.4039 384.577 42.4008 385.831 42.4258C388.364 42.4509 393.079 43.5293 394.659 47.4417C395.11 48.5954 394.559 49.9246 393.405 50.376C392.853 50.6017 392.326 50.6017 391.85 50.4513Z" fill="#A36A24"/>
<path d="M388.364 58.2765C388.089 59.8063 387.236 60.9349 386.433 60.8095C385.631 60.6841 385.204 59.3298 385.48 57.8C385.756 56.2701 386.609 55.1415 387.411 55.2669C388.214 55.3923 388.64 56.7466 388.364 58.2765Z" fill="#131E07"/>
<path d="M383.825 54.74C383.749 54.7149 383.674 54.6396 383.649 54.5644C383.549 54.3638 383.599 54.113 383.799 54.0127C383.975 53.9123 387.887 51.7555 390.947 54.3638C391.123 54.5142 391.148 54.765 390.997 54.9406C390.847 55.1162 390.596 55.1412 390.42 54.9908C387.787 52.7587 384.251 54.7149 384.201 54.74C384.075 54.7901 383.925 54.7901 383.825 54.74Z" fill="#131E07"/>
<path d="M393.58 49.8243C388.64 48.7459 383.774 51.8808 382.671 56.8214C382.445 57.7995 382.42 58.7776 382.495 59.7056L384.05 60.2824C383.85 59.2792 383.875 58.2008 384.1 57.1475C385.003 52.9843 389.091 50.376 393.254 51.2789C397.392 52.1817 400.026 56.2697 399.123 60.4329C398.22 64.5961 394.107 67.2043 389.969 66.3015C388.038 65.8751 386.408 64.7716 385.354 63.2668L384.1 63.9942C385.354 65.85 387.311 67.2294 389.668 67.731C394.584 68.7843 399.474 65.6745 400.552 60.7338C401.631 55.7681 398.496 50.9027 393.58 49.8243Z" fill="white"/>
<path d="M362.558 55.5674C363.636 50.6519 368.527 47.5169 373.442 48.5703C378.358 49.6487 381.493 54.5392 380.439 59.4548C379.361 64.3703 374.471 67.5053 369.555 66.4519C364.614 65.3735 361.479 60.483 362.558 55.5674ZM363.962 55.8684C363.059 60.0065 365.693 64.1195 369.831 65.0224C373.969 65.9252 378.082 63.2919 378.985 59.1538C379.888 55.0157 377.254 50.9027 373.116 49.9998C368.978 49.0969 364.865 51.7303 363.962 55.8684Z" fill="white"/>
<path d="M398.672 61.1599C398.898 61.2101 399.148 61.1599 399.324 60.9844C399.625 60.7085 399.625 60.2571 399.349 59.9561C399.274 59.8809 397.619 58.1504 394.283 57.5736C393.882 57.4983 393.506 57.7742 393.43 58.1755C393.355 58.5768 393.631 58.953 394.032 59.0282C396.866 59.5298 398.271 60.9593 398.296 60.9844C398.421 61.0596 398.547 61.1349 398.672 61.1599Z" fill="white"/>
<path d="M364.163 52.2819C358.093 49.4228 353.629 49.5733 350.971 50.1752L351.121 51.6549C353.479 51.1031 357.717 50.8774 363.561 53.6111C363.912 53.7866 364.363 53.6362 364.539 53.26C364.689 52.9089 364.539 52.4574 364.163 52.2819Z" fill="white"/>
<path d="M340.111 46.012C340.111 46.012 344.976 45.5605 347.961 48.4698C350.945 51.3539 350.77 58.7774 354.807 59.1787C358.845 59.5799 353.403 40.645 355.535 38.0116C357.641 35.3783 369.454 38.4881 373.065 33.8484C376.652 29.2338 380.915 29.2589 385.053 33.5726C389.191 37.8862 399.223 41.8739 398.396 35.4285C397.568 28.983 382.37 11.9039 369.128 11.5027C355.911 11.1014 342.193 13.9855 338.631 27.2024C335.07 40.3942 340.111 46.012 340.111 46.012Z" fill="#A36A24"/>
<path d="M353.103 66.8527C352.551 67.5299 351.899 68.0315 351.247 68.3826C350.043 69.0096 348.764 69.1601 347.836 69.1601C347.786 68.9845 347.736 68.834 347.71 68.6585C347.61 68.2823 347.535 67.9061 347.46 67.5048C347.41 67.5048 347.359 67.4797 347.284 67.4797C347.535 67.5048 347.836 67.5048 348.162 67.4797C348.613 67.4547 349.115 67.4045 349.642 67.2289C350.419 67.0032 351.196 66.5769 351.823 65.7994C352.099 65.4483 352.626 65.3981 352.977 65.674C353.328 66 353.378 66.5016 353.103 66.8527Z" fill="#B05935"/>
<path d="M377.906 77.6118C376.778 77.2607 376.251 76.408 376.226 76.3578C376.075 76.107 376.151 75.781 376.401 75.6305C376.652 75.48 376.978 75.5553 377.129 75.8061C377.154 75.8562 377.856 76.9347 379.386 76.6588C379.687 76.6086 379.963 76.8093 380.013 77.0851C380.063 77.3861 379.862 77.662 379.586 77.7121C378.909 77.8124 378.358 77.7623 377.906 77.6118Z" fill="#B05935"/>
<path d="M345.98 61.7616C345.654 61.6613 345.428 61.3604 345.403 61.0092C345.127 55.1908 338.682 51.78 338.632 51.7299C338.231 51.5292 338.08 51.0276 338.281 50.6264C338.481 50.2251 338.983 50.0746 339.384 50.2752C339.685 50.4257 346.707 54.1375 347.059 60.934C347.084 61.3854 346.733 61.7616 346.281 61.7867C346.181 61.7867 346.08 61.7867 345.98 61.7616Z" fill="#B05935"/>
<path d="M339.359 57.5736C339.258 57.5485 339.158 57.4984 339.083 57.4231C338.732 57.1222 338.681 56.6206 338.982 56.2695C339.058 56.1691 340.964 53.9371 344.249 54.539C344.701 54.6142 345.002 55.0406 344.901 55.492C344.801 55.9434 344.4 56.2444 343.948 56.1441C341.591 55.7177 340.261 57.2977 340.261 57.3228C340.011 57.5987 339.66 57.6739 339.359 57.5736Z" fill="#B05935"/>
<path d="M381.367 66.2259C381.166 66.1757 381.016 66.0503 380.89 65.8497C380.665 65.4484 380.79 64.9468 381.191 64.7211L385.956 61.9624L382.169 60.3322C381.944 60.2319 381.793 60.0563 381.718 59.8306L378.633 49.7988C378.508 49.3725 378.734 48.896 379.185 48.7706C379.611 48.6452 380.088 48.8709 380.213 49.3223L383.198 58.9779L388.138 61.1097C388.414 61.2351 388.615 61.5109 388.64 61.8119C388.665 62.1128 388.489 62.4138 388.239 62.5643L382.069 66.1506C381.818 66.276 381.567 66.3011 381.367 66.2259Z" fill="#B05935"/>
<path d="M379.636 55.1913C379.862 55.2415 380.113 55.1913 380.288 55.0158C380.514 54.7901 381.718 53.812 382.972 55.0659C383.248 55.3418 383.724 55.3418 384 55.0659C384.276 54.7901 384.276 54.3136 384 54.0377C382.144 52.1567 380.113 53.1599 379.285 53.9625C378.984 54.2383 378.984 54.6898 379.26 54.9907C379.386 55.091 379.511 55.1663 379.636 55.1913Z" fill="white"/>
<path d="M374.996 56.1944C374.721 57.7243 373.868 58.8529 373.065 58.7275C372.263 58.6021 371.836 57.2478 372.112 55.7179C372.388 54.1881 373.241 53.0595 374.043 53.1849C374.821 53.3103 375.247 54.6646 374.996 56.1944Z" fill="#131E07"/>
<path d="M369.73 53.1093C369.655 53.0842 369.579 53.0341 369.529 52.9588C369.404 52.7833 369.429 52.5074 369.604 52.382C369.755 52.2566 373.366 49.6233 376.752 51.8302C376.953 51.9556 377.003 52.2064 376.877 52.4071C376.752 52.6077 376.501 52.6579 376.301 52.5325C373.417 50.6515 370.131 53.0341 370.106 53.0591C369.981 53.1093 369.855 53.1344 369.73 53.1093Z" fill="#131E07"/>
<path d="M173.433 49.9738L141.783 18.8001C141.381 18.3988 140.83 18.1731 140.228 18.1982C139.651 18.2233 139.099 18.4741 138.723 18.9004L93.8808 68.7834C93.5297 69.1847 93.3291 69.6863 93.3291 70.2129L96.7148 533.129L100.953 533.104L97.5675 70.9904L140.403 23.3645L170.473 53.0084C171.301 53.8361 172.655 53.811 173.458 52.9833C174.285 52.1306 174.26 50.8014 173.433 49.9738Z" fill="#131E07"/>
<path d="M142.485 552.29L55.434 552.917L55.4089 549.656C55.3086 537.493 65.1147 527.561 77.2782 527.486L120.315 527.16C132.478 527.06 142.41 536.866 142.485 549.029V552.29Z" fill="#131E07"/>
<path d="M216.945 65.0464C223.942 73.0718 223.114 85.2855 215.089 92.2827C207.064 99.2799 194.85 98.4522 187.853 90.4268C180.856 82.3763 181.683 70.1877 189.709 63.1906C197.734 56.1683 209.948 56.9959 216.945 65.0464Z" fill="white"/>
<path d="M244.808 45.8105C223.867 27.1263 191.79 26.4993 170.072 45.4092C148.353 64.3442 144.616 96.1951 160.266 119.494L244.808 45.8105Z" fill="#131E07"/>
<path d="M631.76 458.568L631.534 460.274L631.283 462.305L630.957 464.713L629.678 474.795L629.528 475.898L628.173 486.457L628.023 487.585L622.631 529.443L622.505 530.571L619.722 552.165L559.105 552.616L558.227 546.497L558.076 545.368L557.6 542.083L557.424 541.004L554.766 522.446L554.59 521.142L548.621 479.585L548.421 478.281L547.342 470.757L545.687 459.195L631.76 458.568Z" fill="#D5963D"/>
<path d="M565.449 505.041C564.421 512.013 560.483 518.383 554.765 522.421L554.59 521.142C561.712 515.8 565.85 506.47 564.22 497.592C562.69 489.291 556.395 482.469 548.621 479.56L548.42 478.256C550.828 479.083 553.135 480.287 555.217 481.817C562.565 487.159 566.778 495.987 565.449 505.041Z" fill="#A36A24"/>
<path d="M629.678 474.795L629.528 475.873C622.204 475.146 615.358 477.503 609.339 481.666C604.172 485.253 598.956 489.617 592.36 489.692C586.717 489.742 581.074 486.757 578.14 481.917C574.98 476.726 575.08 470.03 578.115 464.838C578.491 464.186 579.494 464.763 579.118 465.415C575.055 472.362 576.911 481.616 583.758 486.03C589.827 489.943 596.623 488.739 602.467 485.077C608.01 481.591 612.8 477.252 619.295 475.572C622.756 474.669 626.267 474.444 629.678 474.795Z" fill="#A36A24"/>
<path d="M631.534 460.274L631.283 462.305C630.706 463.208 630.054 464.036 629.327 464.838C626.017 468.525 621.452 471.033 616.461 471.66C610.818 472.362 605.075 470.506 600.762 466.895C599.859 466.142 599.006 465.29 598.229 464.387C597.752 463.835 598.555 463.007 599.031 463.559C600.059 464.763 601.213 465.841 602.467 466.769C606.304 469.578 611.069 471.033 615.885 470.556C620.349 470.13 624.487 468.048 627.622 464.939C628.926 463.634 630.079 462.155 630.982 460.55C631.108 460.324 631.333 460.249 631.534 460.274Z" fill="#A36A24"/>
<path d="M628.173 486.457L628.022 487.585C625.84 487.686 623.684 488.388 621.853 489.742C618.241 492.426 616.536 497.241 617.539 501.605C618.342 505.066 620.498 508.176 620.599 511.837C620.674 514.772 619.345 517.48 617.439 519.662C612.498 525.33 604.724 526.534 598.93 530.973C592.961 535.562 591.005 544.29 594.742 550.936C595.018 551.438 595.344 551.914 595.67 552.391H594.265C593.99 551.964 593.714 551.513 593.488 551.036C590.228 544.641 591.532 536.265 596.748 531.324C602.943 525.43 613.075 524.778 617.84 517.204C620.649 512.765 618.793 508.752 617.163 504.313C615.859 500.802 615.683 497.216 617.238 493.755C619.295 489.216 623.633 486.657 628.173 486.457Z" fill="#A36A24"/>
<path d="M611.52 541.857C611.445 546.447 614.104 550.284 617.866 552.19L615.659 552.215C612.273 549.807 610.116 545.795 610.392 541.28C610.793 534.584 616.286 529.719 622.656 529.443L622.505 530.571C616.612 530.897 611.596 535.663 611.52 541.857Z" fill="#A36A24"/>
<path d="M606.831 506.47C606.304 511.511 601.564 514.47 597.927 517.279C593.137 520.991 588.498 525.029 584.986 530.02C580.472 536.44 578.115 545.143 580.447 552.466H579.243C577.187 545.594 578.892 537.594 582.704 531.349C585.588 526.634 589.526 522.646 593.739 519.11C595.796 517.38 597.978 515.775 600.109 514.119C602.642 512.163 605.226 509.73 605.627 506.37C606.48 498.971 596.949 497.893 591.733 498.294C586.416 498.695 580.873 500.526 577.688 505.066C574.654 509.379 574.102 514.897 573.199 519.963C572.221 525.33 570.691 530.772 567.381 535.211C564.973 538.446 561.387 540.979 557.55 542.083L557.399 541.004C559.18 540.528 560.885 539.7 562.39 538.597C567.857 534.584 570.39 527.963 571.694 521.543C572.697 516.677 573.099 511.586 575.231 507.022C577.187 502.834 580.673 499.924 585.012 498.445C589.501 496.89 595.093 496.413 599.683 497.667C603.696 498.771 607.307 502.056 606.831 506.47Z" fill="#A36A24"/>
<path d="M570.064 552.516H568.885C568.409 550.485 567.431 548.604 565.575 547.425C563.192 545.87 560.634 545.745 558.227 546.472L558.076 545.369C561.111 544.441 564.321 544.767 567.13 547.149C568.76 548.579 569.638 550.485 570.064 552.516Z" fill="#A36A24"/>
<path d="M631.76 458.568L631.534 460.274L631.283 462.305L630.957 464.713L629.327 464.838L627.622 464.964L602.492 466.769L600.762 466.895L547.342 470.757L545.687 459.195L631.76 458.568Z" fill="#171612"/>
<path d="M639.434 459.02C605.652 462.13 571.845 462.38 538.038 459.772L537.962 450.568L639.358 449.841L639.434 459.02Z" fill="#D5963D"/>
<path d="M615.483 341.448C612.348 345.26 610.166 359.329 604.122 361.637C599.959 363.217 597.702 357.223 605.727 349.548C610.893 344.608 613.176 338.739 614.129 335.178C612.649 328.983 610.743 322.638 608.31 316.87C603.67 321.209 596.247 327.378 594.09 324.469C591.733 321.309 598.629 311.227 602.467 306.061C600.636 303.452 598.629 301.17 596.372 299.364C592.711 296.405 588.472 294.75 583.557 294.9C580.021 295.026 576.785 296.33 573.876 298.512C578.089 306.713 584.334 320.582 580.046 323.817C576.083 326.826 570.214 315.34 566.528 306.763C561.487 314.663 558.151 325.447 556.747 335.855C557.75 337.711 559.506 339.868 562.49 341.974C570.415 347.592 579.845 358.953 575.18 361.536C570.515 364.119 565.575 357.423 562.064 351.454C560.258 348.395 558.226 345.912 556.045 344.282C555.994 346.112 555.994 347.868 556.07 349.598C557.549 382.277 589.45 382.026 589.45 382.026C589.45 382.026 621.376 374.427 615.483 341.448ZM575.331 342.376C572.171 342.376 567.105 336.507 564.722 333.247C562.339 329.961 564.22 327.729 566.478 328.331C566.503 328.331 566.528 328.356 566.578 328.356C569.763 329.309 579.419 342.401 575.331 342.376ZM603.119 334.35C603.144 334.35 603.194 334.325 603.219 334.325C605.476 333.673 607.357 335.178 606.304 338.062C604.949 341.849 603.094 343.379 600.26 341.974C598.454 341.097 599.934 335.328 603.119 334.35Z" fill="#7F784B"/>
<path d="M585.689 333.472C588.598 347.742 587.796 362.514 586.843 376.96C585.814 392.384 584.385 407.858 585.087 423.332C585.488 432.11 586.592 440.862 588.774 449.389C588.949 450.117 590.078 449.791 589.902 449.063C582.103 418.441 588.849 387.167 588.849 356.169C588.849 348.445 588.347 340.72 586.817 333.121C586.667 332.419 585.538 332.745 585.689 333.472Z" fill="#171612"/>
<path d="M571.694 382.302C571.418 387.242 577.939 399.882 574.428 405.325C571.995 409.062 566.653 405.525 568.609 394.616C569.863 387.568 568.233 381.499 566.929 378.063C562.089 373.925 556.797 369.938 551.43 366.702C550.251 372.947 547.894 382.302 544.433 381.223C540.671 380.045 540.295 367.856 540.345 361.411C537.335 360.382 534.351 359.73 531.467 359.605C526.777 359.379 522.363 360.533 518.476 363.567C515.692 365.749 513.836 368.709 512.783 372.195C521.034 376.333 534.226 383.857 532.696 388.973C531.266 393.738 519.755 387.92 511.729 383.18C512.331 392.534 515.993 403.218 520.984 412.447C522.89 413.35 525.573 414.052 529.235 414.002C538.94 413.852 553.286 417.488 551.029 422.303C548.797 427.144 540.846 424.636 534.476 421.902C531.216 420.498 528.106 419.695 525.372 419.67C526.401 421.175 527.454 422.604 528.532 423.934C548.997 449.439 574.628 430.429 574.628 430.429C574.628 430.429 595.896 405.5 571.694 382.302ZM539.818 406.754C537.26 408.61 529.711 406.855 525.874 405.626C522.012 404.397 522.212 401.462 524.394 400.635C524.419 400.635 524.445 400.61 524.495 400.61C527.605 399.481 543.129 404.347 539.818 406.754ZM557.524 383.882C557.549 383.857 557.574 383.832 557.574 383.807C559.004 381.951 561.412 382.051 562.264 385.01C563.393 388.873 562.791 391.18 559.681 391.732C557.75 392.083 555.543 386.54 557.524 383.882Z" fill="#7F784B"/>
<path d="M542.878 393.412C550.427 400.259 557.901 407.356 564.02 415.557C568.71 421.827 572.321 428.724 575.607 435.796C577.939 440.812 580.146 445.878 582.428 450.894C582.729 451.571 583.732 450.969 583.431 450.292C579.695 442.016 576.209 433.589 571.845 425.614C567.932 418.466 563.067 411.971 557.524 406.027C553.161 401.312 548.471 396.898 543.706 392.584C543.154 392.083 542.326 392.91 542.878 393.412Z" fill="#171612"/>
<path d="M599.833 436.123C599.833 436.123 625.615 454.932 645.879 429.276C646.932 427.922 647.986 426.492 648.989 424.987C646.255 425.038 643.17 425.84 639.91 427.295C633.565 430.079 625.64 432.637 623.358 427.821C621.075 423.006 635.396 419.269 645.076 419.345C648.738 419.37 651.397 418.642 653.303 417.714C658.243 408.46 661.83 397.726 662.331 388.372C654.356 393.187 642.895 399.08 641.415 394.34C639.835 389.224 652.977 381.6 661.203 377.412C660.124 373.926 658.243 370.991 655.459 368.81C651.572 365.8 647.133 364.697 642.443 364.947C639.559 365.098 636.6 365.775 633.59 366.828C633.69 373.274 633.415 385.487 629.653 386.691C626.217 387.795 623.759 378.44 622.555 372.22C617.188 375.481 611.947 379.518 607.131 383.707C605.827 387.168 604.247 393.262 605.576 400.284C607.608 411.194 602.291 414.755 599.833 411.043C596.272 405.651 602.692 392.961 602.391 388.02C578.365 411.344 599.833 436.123 599.833 436.123ZM649.766 405.902C649.791 405.927 649.842 405.927 649.867 405.927C652.074 406.755 652.274 409.664 648.437 410.943C644.6 412.197 637.076 414.003 634.493 412.172C631.132 409.814 646.631 404.824 649.766 405.902ZM614.48 397.325C611.37 396.798 610.743 394.491 611.846 390.629C612.699 387.669 615.081 387.544 616.536 389.375C616.561 389.4 616.586 389.425 616.586 389.45C618.593 392.108 616.436 397.651 614.48 397.325Z" fill="#7F784B"/>
<path d="M630.48 398.053C615.107 413.702 602.918 431.81 591.156 450.243C590.754 450.87 591.758 451.447 592.159 450.82C603.871 432.487 615.984 414.455 631.308 398.855C631.835 398.329 631.007 397.501 630.48 398.053Z" fill="#171612"/>
<path d="M639.358 449.816C639.358 450.743 616.662 451.671 588.673 451.872C560.659 452.073 537.962 451.496 537.962 450.543C537.962 449.615 560.659 448.687 588.648 448.486C616.662 448.286 639.358 448.888 639.358 449.816Z" fill="#171612"/>
</svg>
